# xmcd
#
# Track frame offsets: 
#        150
#        23053
#        42793
#        57889
#        79520
#        100922
#        119124
#        137075
#        161184
#        177016
#        194798
#        215745
#        235507
#        253878
#        269357
#        283736
#        303989
#        323526
#        341578
#
# Disc length: 4751 seconds
#
# Revision: 0
# Processed by: cddbd v1.5.2PL0 Copyright (c) Steve Scherf et al.
# Submitted via: ExactAudioCopy v0.95a5
#
DISCID=18128d13
DTITLE=Joe Cocker - All Stars [CD II)
DYEAR=2005
DGENRE=Blues
TTITLE0=Unchain My Heart
TTITLE1=My Father's Son
TTITLE2=Just Like Always
TTITLE3=With A Little Help From Friends
TTITLE4=Heart Full Of Rain
TTITLE5=On My Way Home
TTITLE6=Sweet Little Woman
TTITLE7=Where Would I Be Now
TTITLE8=Every Time It Rains
TTITLE9=Soul Rising
TTITLE10=Tonight
TTITLE11=What Do You Say
TTITLE12=Could You Be Loved
TTITLE13=Night Calls
TTITLE14=The Last One To Know
TTITLE15=N'oubliez Jamais
TTITLE16=Leave A Light On
TTITLE17=That's All I Need To Know (Live)
TTITLE18=Shocked
EXTD=
EXTT0=
EXTT1=
EXTT2=
EXTT3=
EXTT4=
EXTT5=
EXTT6=
EXTT7=
EXTT8=
EXTT9=
EXTT10=
EXTT11=
EXTT12=
EXTT13=
EXTT14=
EXTT15=
EXTT16=
EXTT17=
EXTT18=
PLAYORDER=
